<svg width="195" height="195" fill="none" xmlns="http://www.w3.org/2000/svg"><path d="m114.472 1.308-5.409-.402-.325 4.314-6.854-.508.33-4.31L96.791 0l-.901 11.753 5.427.402.307-4.012 6.849.508-.306 4.012 5.408.398.897-11.753Zm21.909 6.245-5.064-1.958-3.025 7.535-4.81-1.862-1.394 3.436 14.679 5.682 1.371-3.436-4.809-1.862 3.052-7.535Zm25.832 22.843c1.445-1.83 3.285-5.632-2.649-10.198l-.581-.457c-5.859-4.507-9.247-1.867-10.687-.055l-3.467 4.369 4.299 3.307 3.15-3.97c.85-1.071 2.323-1.908 4.475-.257 2.184 1.68 1.682 3.262.827 4.337l-3.151 3.967 4.299 3.307 3.485-4.35Zm10.878 11.579c.957-.668 2.583-.82 4.33 1.596 1.748 2.416 1.037 3.898.079 4.575l-.158.11c-.929.659-2.458.828-4.251-1.652-1.794-2.48-1.129-3.833-.186-4.497l.186-.132Zm-2.663 6.953c4.591 6.355 8.127 5.239 10.084 3.87l.39-.274c1.928-1.372 4.242-4.328-.349-10.682l-.464-.618c-4.596-6.368-8.216-5.197-10.144-3.847l-.39.274c-1.957 1.373-4.183 4.292.408 10.66l.465.617Zm23.234 19.828-1.757-5.032-4.066 1.372-9.405-3.71 1.901 5.421 4.716 1.862-2.597 4.273 2.063 5.902 5.028-8.693 4.117-1.395Zm-2.054 32.12 3.253.083.139-5.385-3.253-.082-.139 5.384Zm1.273 28.575c2.086-6.13.548-7.956-1.394-8.605l-.214-.069c-2.323-.764-3.884.49-5.474 4.762l-.766 2.119c-.693 1.88-1.115 2.173-1.557 2.026-.413-.132-.636-.457-.042-2.218v-.074c.642-1.894 1.357-1.894 1.785-1.802l1.937-5.71-.107-.036c-1.858-.618-4.024.16-5.994 5.947l-.562 1.652c-1.803 5.307-.86 7.269 1.143 7.928l.135.046c1.784.585 3.754.082 5.404-4.369l.818-2.205c.794-2.091 1.231-2.183 1.705-2.027h.033c.464.155.79.659.181 2.461l-.023.064c-.67 1.967-1.599 1.908-2.147 1.78l-1.97 5.824.134.041c1.464.485 4.182.668 6.413-5.838l.562-1.697Zm-19.01 26.168 2.231-3.088c1.013-1.409 1.984-1.468 3.034-.736l1.166.819a.725.725 0 0 0 .465.183l3.225-4.47-.079-.055a2.16 2.16 0 0 1-1.115-.508l-1.473-1.024c-1.26-.883-2.672-.705-3.922.457.367-.947.748-2.626-.725-3.66l-.13-.091c-1.785-1.249-3.55-.252-5.293 2.168l-7.049 9.777 9.758 6.825 3.137-4.355-3.23-2.242Zm-4.001-2.799 2.789-3.862c.52-.723 1.008-.768 1.394-.485.408.284.525.751 0 1.478l-2.789 3.861-1.394-.992Zm-23.326 17.11 7.435 9.245 10.966-8.545-1.989-2.475-6.784 5.288-.809-1.006 6.613-5.156-1.938-2.384-6.608 5.129-.729-.915 6.724-5.225-1.966-2.447-10.915 8.491Zm-14.228 19.512-1.859-4.63 6.807 2.713 6.589-2.553-9.056-3.431 4.572-7.494-6.198 2.402-3.611 6.112-1.631-4.081-5.046 1.972 4.382 10.98 5.051-1.99Zm-31.719-6.195.929 11.753 13.685-1.043-.302-3.825-8.276.632-.646-7.929-5.39.412Zm-16.728 10.554 5.929 1.025-3.964-12.654-7.374-1.263-7.746 10.623 5.404.915 1.018-1.482 6.291 1.089.442 1.747Zm-1.394-5.197-3.332-.576 2.286-3.289 1.046 3.865Zm-33.689-7.384 5.325-5.009-1.677 7.064 5.99 3.376 9.836-8.029-4.986-2.809-5.645 5.307 1.891-7.444-5.516-3.11-5.543 5.348 1.687-7.517-5.349-3.015-2.123 12.384 6.11 3.454Zm-22.769-24.416 2.514 2.864c1.148 1.309.976 2.251 0 3.079l-1.087.915c-.182.156-.284.279-.288.393l3.638 4.145.074-.059c.156-.387.424-.719.772-.956l1.36-1.158c1.171-.997 1.329-2.388.465-3.866.85.577 2.411 1.341 3.777.183l.121-.105c1.655-1.409 1.092-3.335-.878-5.577l-7.941-9.058-9.061 7.709 3.55 4.039 2.983-2.548Zm3.717-3.161 3.146 3.587c.59.668.52 1.148.144 1.468-.376.325-.864.321-1.454-.347l-3.146-3.587 1.31-1.121Zm-11.83-25.958-10.892 4.9 5.813 12.521 2.914-1.308-3.583-7.723 1.185-.53 3.503 7.548 2.84-1.276-3.504-7.572 1.055-.457 3.56 7.668 2.88-1.3-5.771-12.471Zm-16.52-16.927.981 5.275 8.085-1.46.93 5.001 3.69-.659-2.826-15.276-3.69.664.93 5-8.1 1.455Zm-.64-19.58L0 97.055l12.64-4.538.928-7.32-11.152-7.082-.697 5.348 1.552.915-.785 6.24-1.743.558Zm5.2-1.634.417-3.298 3.448 2.081-3.866 1.217Zm4.279-33.909 5.576 4.735-7.31-.96-2.815 6.212 9.089 8.834 2.356-5.174-5.916-5.032 7.69 1.125L21.5 59.67l-5.943-4.909 7.765.915 2.532-5.53-12.727-.879-2.904 6.368Z" fill="#fff"/><path fill-rule="evenodd" clip-rule="evenodd" d="M45.118 11.688 47.648 10l2.3 3.394 3.425-2.281 1.699 2.507-3.425 2.28L56 22.318 53.471 24l-4.353-6.416-3.42 2.281L44 17.36l3.42-2.282-2.302-3.39Z" fill="#fff"/></svg>