<svg width="10" height="12" fill="none" xmlns="http://www.w3.org/2000/svg"><path d="M9.686 2.04 8.528.99A1.13 1.13 0 0 0 7.77.707H3.93c-.592 0-1.072.435-1.072.971v.97H1.071C.48 2.648 0 3.083 0 3.619v6.471c0 .537.48.971 1.071.971h5c.592 0 1.072-.434 1.072-.97V9.12h1.786C9.52 9.12 10 8.685 10 8.15V2.725a.927.927 0 0 0-.314-.686Zm-3.748 8.05H1.205a.142.142 0 0 1-.094-.036.116.116 0 0 1-.04-.086V3.74c0-.033.015-.063.04-.086a.141.141 0 0 1 .094-.036h1.652v4.53c0 .536.48.97 1.072.97H6.07v.85a.116.116 0 0 1-.039.086.142.142 0 0 1-.095.035Zm2.857-1.942H4.063a.141.141 0 0 1-.095-.035.116.116 0 0 1-.04-.086V1.798c0-.032.015-.063.04-.086a.141.141 0 0 1 .095-.035h2.366v1.78c0 .268.24.485.535.485H8.93v4.085a.116.116 0 0 1-.04.086.141.141 0 0 1-.094.035Zm.134-5.177H7.5V1.677h.215c.036 0 .07.013.095.035l1.08.979a.121.121 0 0 1 .028.039c.007.015.01.03.01.046v.195Z" fill="#000"/></svg>