<svg width="40" height="7" fill="none" xmlns="http://www.w3.org/2000/svg"><path fill-rule="evenodd" clip-rule="evenodd" d="M5.39 6.942c2.162-.103 3.53-1.604 4.746-2.926.809-.886 1.644-1.801 2.327-1.801 1.187 0 1.975.782 3.132 2.068 1.092 1.214 2.33 2.59 4.383 2.59 2.052 0 3.29-1.376 4.382-2.59 1.158-1.286 1.946-2.068 3.132-2.068.674 0 1.502.928 2.302 1.826 1.186 1.34 2.55 2.86 4.702 2.959h.214c1.528 0 3.115-.757 4.838-2.316 1.082-.976.076-2.684-1.474-1.745-.27.186-.576.459-.863.688-1.011.808-1.898 1.199-2.577 1.16-.982-.045-1.915-1.089-2.817-2.1C30.695 1.424 29.421 0 27.492 0c-2.52 0-3.977 1.62-5.146 2.921-.973 1.08-1.619 1.738-2.373 1.738-.755 0-1.395-.658-2.373-1.738C16.43 1.62 14.974 0 12.454 0 10.532 0 9.25 1.403 8.12 2.641c-.916 1.01-1.865 2.04-2.875 2.089-.776.048-1.863-.505-3.085-1.577C.4 1.925-.557 3.883.343 4.707c1.798 1.577 3.457 2.318 5.04 2.23" fill="#EBFF00"/></svg>