<svg width="195" height="195" viewBox="0 0 195 195" fill="none" xmlns="http://www.w3.org/2000/svg">
<path d="M114.472 1.30843L109.063 0.905833L108.738 5.21995L101.884 4.71213L102.214 0.402592L96.7914 0L95.8899 11.7529L101.317 12.1555L101.624 8.14329L108.473 8.65111L108.167 12.6633L113.575 13.0613L114.472 1.30843ZM136.381 7.55314L131.317 5.59509L128.292 13.1299L123.482 11.268L122.088 14.7037L136.767 20.3857L138.138 16.95L133.329 15.088L136.381 7.55314ZM162.213 30.3956C163.658 28.5656 165.498 24.7639 159.564 20.1981L158.983 19.7406C153.124 15.2344 149.736 17.8741 148.296 19.6857L144.829 24.0548L149.128 27.3624L152.278 23.3914C153.128 22.3209 154.601 21.4837 156.753 23.1352C158.937 24.8142 158.435 26.3971 157.58 27.4722L154.429 31.4386L158.728 34.7463L162.213 30.3956ZM173.091 41.9746C174.048 41.3067 175.674 41.1557 177.421 43.5712C179.169 45.9868 178.458 47.469 177.5 48.1461L177.342 48.2559C176.413 48.9147 174.884 49.084 173.091 46.6044C171.297 44.1248 171.962 42.7706 172.905 42.1073L173.091 41.9746ZM170.428 48.9284C175.019 55.2829 178.555 54.1667 180.512 52.7988L180.902 52.5243C182.83 51.1518 185.144 48.1964 180.553 41.8419L180.089 41.2243C175.493 34.8561 171.873 36.0272 169.945 37.3768L169.555 37.6513C167.598 39.0238 165.372 41.9426 169.963 48.3108L170.428 48.9284ZM193.662 68.756L191.905 63.7236L187.839 65.0961L178.434 61.3858L180.335 66.8071L185.051 68.6691L182.454 72.942L184.517 78.8436L189.545 70.1513L193.662 68.756ZM191.608 100.876L194.861 100.959L195 95.574L191.747 95.4916L191.608 100.876ZM192.881 129.451C194.967 123.321 193.429 121.495 191.487 120.846L191.273 120.777C188.95 120.013 187.389 121.267 185.799 125.539L185.033 127.658C184.34 129.538 183.918 129.831 183.476 129.684C183.063 129.552 182.84 129.227 183.434 127.466V127.392C184.076 125.498 184.791 125.498 185.219 125.59L187.156 119.88L187.049 119.844C185.191 119.226 183.025 120.004 181.055 125.791L180.493 127.443C178.69 132.75 179.633 134.712 181.636 135.371L181.771 135.417C183.555 136.002 185.525 135.499 187.175 131.048L187.993 128.843C188.787 126.752 189.224 126.66 189.698 126.816H189.731C190.195 126.971 190.521 127.475 189.912 129.277L189.889 129.341C189.219 131.308 188.29 131.249 187.742 131.121L185.772 136.945L185.906 136.986C187.37 137.471 190.088 137.654 192.319 131.148L192.881 129.451ZM173.871 155.619L176.102 152.531C177.115 151.122 178.086 151.063 179.136 151.795L180.302 152.614C180.43 152.728 180.595 152.793 180.767 152.797L183.992 148.327L183.913 148.272C183.499 148.213 183.111 148.037 182.798 147.764L181.325 146.74C180.065 145.857 178.653 146.035 177.403 147.197C177.77 146.25 178.151 144.571 176.678 143.537L176.548 143.446C174.763 142.197 172.998 143.194 171.255 145.614L164.206 155.391L173.964 162.216L177.101 157.861L173.871 155.619ZM169.87 152.82L172.659 148.958C173.179 148.235 173.667 148.19 174.053 148.473C174.461 148.757 174.578 149.224 174.053 149.951L171.264 153.812L169.87 152.82ZM146.544 169.93L153.979 179.175L164.945 170.63L162.956 168.155L156.172 173.443L155.363 172.437L161.976 167.281L160.038 164.897L153.43 170.026L152.701 169.111L159.425 163.886L157.459 161.439L146.544 169.93ZM132.316 189.442L130.457 184.812L137.264 187.525L143.853 184.972L134.797 181.541L139.369 174.047L133.171 176.449L129.56 182.561L127.929 178.48L122.883 180.452L127.265 191.432L132.316 189.442ZM100.597 183.247L101.526 195L115.211 193.957L114.909 190.132L106.633 190.764L105.987 182.835L100.597 183.247ZM83.8688 193.801L89.798 194.826L85.8344 182.172L78.46 180.909L70.7139 191.532L76.1181 192.447L77.1357 190.965L83.4274 192.054L83.8688 193.801ZM82.4748 188.604L79.1431 188.028L81.4293 184.739L82.4748 188.604ZM48.786 181.22L54.1112 176.211L52.4337 183.275L58.4233 186.651L68.2605 178.622L63.2745 175.813L57.6287 181.12L59.52 173.676L54.0043 170.566L48.4607 175.914L50.1475 168.397L44.7991 165.382L42.6756 177.766L48.786 181.22ZM26.017 156.804L28.5309 159.668C29.6787 160.977 29.5067 161.919 28.5309 162.747L27.4436 163.662C27.2624 163.818 27.1601 163.941 27.1555 164.055L30.7939 168.2L30.8682 168.141C31.024 167.754 31.2923 167.422 31.6396 167.185L33.0011 166.027C34.172 165.03 34.33 163.639 33.4657 162.161C34.3161 162.738 35.8774 163.502 37.2435 162.344L37.3644 162.239C39.0186 160.83 38.4563 158.904 36.4861 156.662L28.5449 147.604L19.4837 155.313L23.0338 159.352L26.017 156.804ZM29.7344 153.643L32.8803 157.23C33.4704 157.898 33.4007 158.378 33.0243 158.698C32.6479 159.023 32.16 159.019 31.5699 158.351L28.424 154.764L29.7344 153.643ZM17.9038 127.685L7.01191 132.585L12.825 145.106L15.7385 143.798L12.1558 136.075L13.3408 135.545L16.8444 143.093L19.6835 141.817L16.1799 134.245L17.2347 133.788L20.7941 141.456L23.6751 140.156L17.9038 127.685ZM1.38473 110.758L2.36518 116.033L10.4505 114.573L11.3798 119.574L15.0693 118.915L12.2441 103.639L8.55463 104.303L9.48398 109.303L1.38473 110.758ZM0.74348 91.1775L0 97.0562L12.6391 92.5179L13.5684 85.1981L2.41629 78.1162L1.71928 83.4642L3.2713 84.3792L2.486 90.6194L0.74348 91.1775ZM5.94317 89.5443L6.36137 86.2458L9.80924 88.3274L5.94317 89.5443ZM10.2228 55.6352L15.7989 60.3702L8.48957 59.4095L5.67365 65.6222L14.7627 74.4563L17.1185 69.2821L11.2033 64.2497L18.8936 65.3751L21.5004 59.6703L15.5573 54.7614L23.3219 55.6764L25.8544 50.1453L13.127 49.267L10.2228 55.6352Z" fill="white"/>
<path fill-rule="evenodd" clip-rule="evenodd" d="M45.1183 11.6879L47.6473 10L49.9489 13.3942L53.3735 11.113L55.0719 13.6196L51.6473 15.9008L56 22.3167L53.471 24L49.1183 17.5841L45.6984 19.8653L44 17.3587L47.42 15.0775L45.1183 11.6879Z" fill="white"/>
</svg>
