<svg width="10" height="12" viewBox="0 0 10 12" fill="none" xmlns="http://www.w3.org/2000/svg">
<path d="M9.68618 2.03977L8.5281 0.990603C8.32717 0.808568 8.05465 0.7063 7.77049 0.706299L3.92857 0.706299C3.33683 0.706299 2.85714 1.14087 2.85714 1.67697V2.64763H1.07143C0.479688 2.64763 0 3.08221 0 3.6183V10.0894C0 10.6255 0.479688 11.0601 1.07143 11.0601H6.07143C6.66317 11.0601 7.14286 10.6255 7.14286 10.0894V9.11875H8.92857C9.52031 9.11875 10 8.68417 10 8.14808V2.72614C10 2.4687 9.88712 2.22181 9.68618 2.03977ZM5.9375 10.0894H1.20536C1.16984 10.0894 1.13577 10.0766 1.11066 10.0539C1.08554 10.0311 1.07143 10.0003 1.07143 9.96808V3.73963C1.07143 3.70745 1.08554 3.67659 1.11066 3.65384C1.13577 3.63108 1.16984 3.6183 1.20536 3.6183H2.85714V8.14808C2.85714 8.68417 3.33683 9.11875 3.92857 9.11875H6.07143V9.96808C6.07143 10.0003 6.05732 10.0311 6.0322 10.0539C6.00709 10.0766 5.97302 10.0894 5.9375 10.0894ZM8.79464 8.14808H4.0625C4.02698 8.14808 3.99291 8.1353 3.9678 8.11254C3.94268 8.08979 3.92857 8.05893 3.92857 8.02675V1.7983C3.92857 1.76612 3.94268 1.73526 3.9678 1.7125C3.99291 1.68975 4.02698 1.67697 4.0625 1.67697H6.42857V3.45652C6.42857 3.72457 6.66842 3.94186 6.96429 3.94186H8.92857V8.02675C8.92857 8.05893 8.91446 8.08979 8.88934 8.11254C8.86423 8.1353 8.83016 8.14808 8.79464 8.14808V8.14808ZM8.92857 2.97119H7.5V1.67697H7.715C7.75051 1.67697 7.78458 1.68975 7.80971 1.7125L8.88935 2.69061C8.90179 2.70187 8.91165 2.71525 8.91838 2.72997C8.92511 2.7447 8.92857 2.76047 8.92857 2.77641V2.97119Z" fill="black"/>
</svg>
