<svg width="40" height="7" viewBox="0 0 40 7" fill="none" xmlns="http://www.w3.org/2000/svg">
<path fill-rule="evenodd" clip-rule="evenodd" d="M5.39036 6.94199C7.55189 6.83856 8.92094 5.33766 10.1358 4.01586C10.9449 3.13045 11.7801 2.21477 12.4634 2.21477C13.6497 2.21477 14.4375 2.99676 15.5954 4.28325C16.6868 5.49658 17.9254 6.87387 19.9778 6.87387C22.0301 6.87387 23.2687 5.49658 24.3601 4.28325C25.518 2.99676 26.3058 2.21477 27.4921 2.21477C28.166 2.21477 28.994 3.14307 29.7936 4.04109C30.98 5.38055 32.3443 6.90162 34.4963 7C34.5675 7 34.6387 7 34.7099 7C36.2379 7 37.8252 6.24325 39.5478 4.68433C40.6298 3.70811 39.6237 2.00036 38.0744 2.93874C37.8039 3.1254 37.4978 3.39784 37.2107 3.62739C36.1999 4.4346 35.3125 4.82559 34.6339 4.78775C33.6516 4.74234 32.7192 3.69802 31.8175 2.68648C30.6953 1.42522 29.4211 0 27.4921 0C24.9723 0 23.5155 1.61946 22.3457 2.92109C21.3729 4.00073 20.7275 4.6591 19.973 4.6591C19.2185 4.6591 18.5779 4.00073 17.6003 2.92109C16.4306 1.61946 14.9737 0 12.4539 0C10.532 0 9.25075 1.40252 8.12134 2.64108C7.20548 3.65009 6.2564 4.6818 5.24563 4.72973C4.46975 4.77766 3.38305 4.22522 2.16111 3.15315C0.400561 1.92468 -0.555633 3.88216 0.343622 4.70703C2.14213 6.2836 3.80065 7.02523 5.38325 6.93694" fill="#EBFF00"/>
</svg>
